# xmcd
#
# Track frame offsets: 
#        150
#        17087
#        34787
#        42989
#        63604
#        84467
#        108868
#        126859
#        145078
#        165723
#        184442
#        202403
#        219215
#        232946
#        266521
#        290919
#
# Disc length: 4155 seconds
#
# Revision: 1
# Processed by: cddbd v1.5.2PL0 Copyright (c) Steve Scherf et al.
# Submitted via: ExactAudioCopy v0.99pb5
#
DISCID=f0103910
DTITLE=Ró¿ni wykonawcy - Rock mix. Sie macie ludzie
DYEAR=1998
DGENRE=Blues
TTITLE0=Kasa Chorych - Blues Chorego
TTITLE1=R.Riedel i Nocna Zmiana Bluesa - Hotelowy blues
TTITLE2=Pan Maleñczuk - Pierwszy dzieñ w pudle
TTITLE3=D¯EM - Alex
TTITLE4=Breakout - Noc¹ puka ktos
TTITLE5=Gang Olsena - Uwierz mi
TTITLE6=After Blues - Ju¿ nie k³am
TTITLE7=Swawolny Dyzio - Sto dziewczyn
TTITLE8=Zdrowa woda - Piwo 98
TTITLE9=Ptaaki/ Za jeden b³¹d
TTITLE10=Obstawa Prezydenta - Dworcowe s³oneczko
TTITLE11=Martyna Jakubowicz - Kiedy bêdê star¹ kobiet¹
TTITLE12=S.Wierzcholski i Nocna Zmiana Bluesa - Chory na bluesa
TTITLE13=Tortilla Flat - Wolnosæ
TTITLE14=Pazur - Cudowe okulary
TTITLE15=El¿bieta Mielczarek - Poczekalnia PKP
EXTD=
EXTT0=
EXTT1=
EXTT2=
EXTT3=
EXTT4=
EXTT5=
EXTT6=
EXTT7=
EXTT8=
EXTT9=
EXTT10=
EXTT11=
EXTT12=
EXTT13=
EXTT14=
EXTT15=
PLAYORDER=
